<?xml version="1.0" encoding="UTF-8"?><svg id="Calque_1" xmlns="http://www.w3.org/2000/svg" viewBox="0 0 1858.64 492.32"><defs><style>.cls-1{fill:#eaeaea;}.cls-2{fill:#ededed;}</style></defs><path class="cls-2" d="M722.68,118.01c-.05,.21-.1,.41-.15,.61-3.19,14.11-6.85,28.12-10.26,42.16-7.08,29.1-14.17,58.2-21.25,87.3-8.18,33.57-16.35,67.14-24.52,100.72-6.76,27.77-13.52,55.54-20.28,83.3-2.83,11.62-5.66,23.23-8.48,34.84-2.16,8.87-8.48,15.92-15.95,20.74-7.89,5.09-17.86,5.52-26.75,3.5-8.28-1.88-16.53-8.76-20.75-15.95-4.68-8.01-5.67-17.84-3.5-26.75,.05-.2,.1-.41,.15-.61,3.29-14.08,6.85-28.11,10.26-42.16,7.08-29.1,14.17-58.19,21.26-87.29,5.43-22.32,10.87-44.65,16.3-66.96-2.42,3.01-4.84,6.02-7.26,9.03-12.27,15.26-24.54,30.52-36.81,45.78-5.13,6.39-10.28,12.78-15.41,19.17-4.56,5.67-13.02,8.62-19.94,9.55-6.35,.86-12.08,.12-17.99-2.37-12.69-5.35-21.26-17.82-21.34-31.73-.05-7.64-.1-15.28-.14-22.92-.16-25.86-.32-51.71-.48-77.57-6.64,6.85-13.26,13.7-19.89,20.55-14.99,15.5-30,31-45,46.5-16.01,16.54-32.02,33.09-48.03,49.64-15.86,16.39-31.72,32.79-47.57,49.18-14.55,15.03-29.1,30.06-43.65,45.1-11.86,12.26-23.73,24.53-35.59,36.79-8.06,8.32-16.11,16.65-24.18,24.98-2.94,3.04-5.88,6.08-8.82,9.13-12.11,12.51-32.22,13.04-45.59,2.71-6.11-4.72-10.08-10.71-12.44-18.03-2.94-9.11-.37-18.52,3.5-26.75,.11-.24,.23-.48,.33-.71,2.57-5.49,5.16-10.96,7.74-16.44,5.49-11.65,10.96-23.28,16.44-34.92,7.58-16.11,15.16-32.22,22.74-48.33,8.97-19.05,17.94-38.11,26.91-57.17,9.66-20.54,19.33-41.07,28.99-61.61,9.54-20.25,19.06-40.49,28.59-60.74,7.34-15.6,14.68-31.19,22.02-46.79l-43.69,22.96c-35.25,18.52-70.5,37.04-105.76,55.56-29.17,15.33-58.35,30.66-87.52,45.99-12.24,6.43-24.47,12.86-36.72,19.29-8.56,4.5-17.4,5.63-26.74,3.5-8.86-2.02-15.97-8.54-20.75-15.95-4.75-7.38-5.79-18.44-3.5-26.75,2.22-8.03,8.44-16.8,15.95-20.74,.21-.11,.43-.22,.64-.33,14.71-8,29.65-15.58,44.46-23.37,30.47-16,60.93-32.01,91.4-48.02,35.24-18.52,70.5-37.04,105.75-55.56,29.18-15.33,58.35-30.66,87.52-45.99,12.24-6.44,24.48-12.86,36.72-19.29,7.84-4.13,18.03-6.32,26.75-3.5,5.72,1.84,10.89,4.86,15.32,8.93,5.58,5.11,8.58,12.64,9.55,19.93,1.03,4.62,.83,9.23-.63,13.85-1.16,2.76-2.33,5.52-3.5,8.29-.1,.24-.22,.47-.33,.7-2.55,5.5-5.15,10.96-7.74,16.45-5.48,11.64-10.95,23.27-16.43,34.92-7.58,16.11-15.16,32.22-22.74,48.32-8.97,19.06-17.94,38.11-26.91,57.18-9.67,20.54-19.33,41.07-29,61.61-1.91,4.06-3.82,8.13-5.73,12.19,8.98-9.29,17.97-18.58,26.95-27.86,15.86-16.4,31.72-32.79,47.58-49.18,14.55-15.03,29.09-30.07,43.64-45.1,11.86-12.26,23.73-24.53,35.59-36.79,8.06-8.33,16.12-16.66,24.18-24.98,2.95-3.04,5.88-6.08,8.83-9.13,9.73-10.06,25.36-12.48,37.92-7.18,12.68,5.35,21.25,17.82,21.33,31.73,.05,7.64,.1,15.28,.15,22.91,.13,21.78,.27,43.56,.4,65.34,14.54-18.08,29.07-36.15,43.61-54.23,12.27-15.26,24.54-30.51,36.81-45.77,5.13-6.39,10.28-12.78,15.41-19.18,3.15-3.38,6.87-5.77,11.18-7.18,4.14-2.17,8.59-3.17,13.38-2.99,6.16,.28,12.06,1.85,17.52,4.73,6.58,3.48,11.39,9.93,14.2,16.61,3.08,7.29,3.62,14.9,1.75,22.6Z"/><g><path class="cls-1" d="M994.77,128.77h-183.25v-34.03h183.25v34.03Zm-74.61-34.03v183.25h-34.03V94.74h34.03Z"/><path class="cls-1" d="M1043.06,269.22c-10.04-5.84-17.98-13.78-23.82-23.82-5.85-10.03-8.77-20.98-8.77-32.85s2.92-22.82,8.77-32.85c5.84-10.03,13.78-17.97,23.82-23.82,10.03-5.85,20.98-8.77,32.85-8.77v33.77c-8.55,0-15.93,3.06-22.12,9.16-6.2,6.11-9.29,13.53-9.29,22.25s3.1,16.23,9.29,22.51c6.19,6.28,13.57,9.42,22.12,9.42v33.77c-11.87,0-22.82-2.92-32.85-8.77Zm59.03-88.35h-26.18v-33.77h26.18v33.77Zm0,97.12h-26.18v-33.77h26.18v33.77Zm0-33.77c8.55,0,15.92-3.14,22.12-9.42,6.19-6.28,9.29-13.79,9.29-22.51s-3.06-16.14-9.16-22.25c-6.11-6.11-13.53-9.16-22.25-9.16v-33.77c11.87,0,22.82,2.92,32.85,8.77,10.03,5.85,17.97,13.79,23.82,23.82,5.85,10.04,8.77,20.99,8.77,32.85s-2.92,22.82-8.77,32.85c-5.85,10.04-13.79,17.98-23.82,23.82-10.04,5.85-20.99,8.77-32.85,8.77v-33.77Z"/><path class="cls-1" d="M1183.25,277.99V147.1h33.77v130.89h-33.77Zm33.77-130.89h7.85v33.77h-7.85v-33.77Zm18.85,38.35c-3.14-3.05-6.9-4.58-11.26-4.58l.26-33.77c8.9,0,17.15,2.23,24.74,6.68,7.59,4.45,13.61,10.47,18.06,18.06,4.45,7.59,6.67,15.93,6.67,25l-33.77-.26c0-4.36-1.57-8.07-4.71-11.13Zm4.71,11.39c0-9.07,2.23-17.41,6.67-25,4.45-7.59,10.51-13.61,18.19-18.06,7.68-4.45,16.05-6.68,25.13-6.68v33.77c-4.37,0-8.16,1.57-11.39,4.71-3.23,3.14-4.84,6.9-4.84,11.26h-33.77Zm0,81.15v-81.15h33.77v81.15h-33.77Zm61.26-92.54c-3.14-3.05-6.9-4.58-11.26-4.58v-33.77c8.9,0,17.19,2.23,24.87,6.68,7.68,4.45,13.74,10.47,18.19,18.06,4.45,7.59,6.67,15.93,6.67,25l-33.77-.26c0-4.36-1.57-8.07-4.71-11.13Zm-11.26-4.58v0Zm15.97,97.12v-81.42l33.77,.26v81.15h-33.77Z"/><path class="cls-1" d="M845.55,306.66v183.25h-34.03v-183.25h34.03Zm0,0l75.92,183.25h-36.65l-70.68-170.42,31.41-12.83Zm75.92,183.25h-36.65l75.92-183.25,31.41,12.83-70.68,170.42Zm73.3-183.25v183.25h-34.03v-183.25h34.03Z"/><path class="cls-1" d="M1043.06,481.14c-10.04-5.84-17.98-13.78-23.82-23.82-5.85-10.03-8.77-20.98-8.77-32.85s2.92-22.82,8.77-32.85c5.84-10.03,13.78-17.97,23.82-23.82,10.03-5.85,20.98-8.77,32.85-8.77v33.77c-8.55,0-15.93,3.06-22.12,9.16-6.2,6.11-9.29,13.53-9.29,22.25s3.1,16.23,9.29,22.51c6.19,6.28,13.57,9.42,22.12,9.42v33.77c-11.87,0-22.82-2.92-32.85-8.77Zm59.03-122.12v33.77h-26.18v-33.77h26.18Zm0,97.12v33.77h-26.18v-33.77h26.18Zm0,0c8.55,0,15.92-3.14,22.12-9.42,6.19-6.28,9.29-13.78,9.29-22.51s-3.06-16.14-9.16-22.25c-6.11-6.11-13.53-9.16-22.25-9.16v-33.77c11.87,0,22.82,2.92,32.85,8.77,10.03,5.85,17.97,13.79,23.82,23.82,5.85,10.04,8.77,20.99,8.77,32.85s-2.92,22.82-8.77,32.85c-5.85,10.04-13.79,17.98-23.82,23.82-10.04,5.85-20.99,8.77-32.85,8.77v-33.77Zm31.68-97.12h33.77v130.89h-33.77v-130.89Z"/><path class="cls-1" d="M1217.02,359.02v130.89h-33.77v-130.89h33.77Zm-1.05,0h79.84v33.77h-79.84v-33.77Zm0,55.24h79.84v33.77h-79.84v-33.77Zm84.3,9.69l40.05,40.84v25.13h-23.04l-41.36-41.89,24.35-24.08Zm17.8-58.9c6.81,4.02,12.21,9.42,16.23,16.23,4.01,6.81,6.02,14.23,6.02,22.25s-2.01,15.44-6.02,22.25c-4.02,6.81-9.42,12.22-16.23,16.23-6.81,4.02-14.23,6.02-22.25,6.02v-33.77c2.97,0,5.5-1.09,7.59-3.27,2.09-2.18,3.14-4.67,3.14-7.46,0-2.97-1.05-5.5-3.14-7.59-2.1-2.1-4.63-3.14-7.59-3.14v-33.77c8.03,0,15.45,2.01,22.25,6.02Z"/><path class="cls-1" d="M1390.05,424.47h-34.03v-117.8h34.03v117.8Zm0,0c0,8.73,3.1,16.19,9.29,22.38,6.19,6.2,13.57,9.29,22.12,9.29v33.77c-11.87,0-22.82-2.92-32.85-8.77-10.04-5.84-17.98-13.78-23.82-23.82-5.85-10.03-8.77-20.98-8.77-32.85h34.03Zm78.54-54.45v33.77h-101.05v-33.77h101.05Zm-47.12,119.9v-33.77h26.18v33.77h-26.18Zm91.62-65.45c0,11.87-2.92,22.82-8.77,32.85-5.85,10.04-13.79,17.98-23.82,23.82-10.04,5.85-20.99,8.77-32.85,8.77v-33.77c8.72,0,16.14-3.1,22.25-9.29,6.11-6.19,9.16-13.57,9.16-22.12l34.03-.26Z"/><path class="cls-1" d="M1685.87,393.05h-157.07v-34.03h157.07v34.03Zm0,96.86h-157.07v-34.03h157.07v34.03Zm-96.99-138.62c-5.15-5.15-7.72-11.3-7.72-18.46s2.57-13.31,7.72-18.46,11.3-7.72,18.46-7.72,13.31,2.58,18.46,7.72c5.14,5.15,7.72,11.3,7.72,18.46s-2.58,13.31-7.72,18.46c-5.15,5.15-11.3,7.72-18.46,7.72s-13.31-2.57-18.46-7.72Zm35.47,7.72v130.89h-34.03v-130.89h34.03Z"/><path class="cls-1" d="M1701.57,489.91v-130.89h33.77v130.89h-33.77Zm8.77-98.3c5.84-10.03,13.78-17.97,23.82-23.82,10.03-5.85,20.98-8.77,32.85-8.77v33.77c-8.55,0-15.93,3.06-22.12,9.16-6.2,6.11-9.29,13.53-9.29,22.25l-34.03,.26c0-11.87,2.92-22.82,8.77-32.85Zm82.85,1.18h-26.18v-33.77h26.18v33.77Zm22.25,9.16c-6.11-6.11-13.53-9.16-22.25-9.16v-33.77c11.87,0,22.82,2.92,32.85,8.77,10.03,5.85,17.97,13.79,23.82,23.82,5.85,10.04,8.77,20.99,8.77,32.85l-34.03-.26c0-8.72-3.06-16.14-9.16-22.25Zm9.16,87.96v-65.71l34.03,.26v65.45h-34.03Z"/></g></svg>